{
  "accessors": [
    {
      "bufferView": 2,
      "componentType": 5126,
      "count": 130,
      "max": [
        1.5155444145202637,
        1.25,
        1.4000000953674316
      ],
      "min": [
        -1.0825318098068237,
        -1.25,
        0
      ],
      "type": "VEC3"
    },
    {
      "bufferView": 2,
      "byteOffset": 1560,
      "componentType": 5126,
      "count": 130,
      "max": [
        1,
        0.86602550745010376,
        0
      ],
      "min": [
        -1,
        -0.86602550745010376,
        0
      ],
      "type": "VEC3"
    },
    {
      "bufferView": 1,
      "componentType": 5126,
      "count": 130,
      "max": [
        0.67318737506866455,
        0.63804864883422852
      ],
      "min": [
        0.021262526512145996,
        0.029229700565338135
      ],
      "type": "VEC2"
    },
    {
      "bufferView": 0,
      "componentType": 5125,
      "count": 210,
      "max": [
        129
      ],
      "min": [
        0
      ],
      "type": "SCALAR"
    },
    {
      "bufferView": 2,
      "byteOffset": 3120,
      "componentType": 5126,
      "count": 6,
      "max": [
        0.64951902627944946,
        0.5,
        1.4000000953674316
      ],
      "min": [
        -0.21650634706020355,
        -0.5,
        1.4000000953674316
      ],
      "type": "VEC3"
    },
    {
      "bufferView": 2,
      "byteOffset": 3192,
      "componentType": 5126,
      "count": 6,
      "max": [
        0,
        0,
        1
      ],
      "min": [
        0,
        0,
        1
      ],
      "type": "VEC3"
    },
    {
      "bufferView": 1,
      "byteOffset": 1040,
      "componentType": 5126,
      "count": 6,
      "max": [
        0.79696601629257202,
        0.78402584791183472
      ],
      "min": [
        0.62515521049499512,
        0.57785290479660034
      ],
      "type": "VEC2"
    },
    {
      "bufferView": 0,
      "byteOffset": 840,
      "componentType": 5125,
      "count": 12,
      "max": [
        5
      ],
      "min": [
        0
      ],
      "type": "SCALAR"
    },
    {
      "bufferView": 2,
      "byteOffset": 3264,
      "componentType": 5126,
      "count": 6,
      "max": [
        1.0825318098068237,
        -0.25,
        1.2000000476837158
      ],
      "min": [
        0.21650634706020355,
        -1.25,
        1.2000000476837158
      ],
      "type": "VEC3"
    },
    {
      "bufferView": 2,
      "byteOffset": 3336,
      "componentType": 5126,
      "count": 6,
      "max": [
        0,
        0,
        1
      ],
      "min": [
        0,
        0,
        1
      ],
      "type": "VEC3"
    },
    {
      "bufferView": 1,
      "byteOffset": 1088,
      "componentType": 5126,
      "count": 6,
      "max": [
        0.89241641759872437,
        0.61221492290496826
      ],
      "min": [
        0.72060573101043701,
        0.40604209899902344
      ],
      "type": "VEC2"
    },
    {
      "bufferView": 0,
      "byteOffset": 888,
      "componentType": 5125,
      "count": 12,
      "max": [
        5
      ],
      "min": [
        0
      ],
      "type": "SCALAR"
    },
    {
      "bufferView": 2,
      "byteOffset": 3408,
      "componentType": 5126,
      "count": 6,
      "max": [
        1.5155444145202637,
        0.5,
        1
      ],
      "min": [
        0.64951902627944946,
        -0.5,
        1
      ],
      "type": "VEC3"
    },
    {
      "bufferView": 2,
      "byteOffset": 3480,
      "componentType": 5126,
      "count": 6,
      "max": [
        0,
        0,
        1
      ],
      "min": [
        0,
        0,
        1
      ],
      "type": "VEC3"
    },
    {
      "bufferView": 1,
      "byteOffset": 1136,
      "componentType": 5126,
      "count": 6,
      "max": [
        0.98786693811416626,
        0.78402584791183472
      ],
      "min": [
        0.81605613231658936,
        0.57785290479660034
      ],
      "type": "VEC2"
    },
    {
      "bufferView": 0,
      "byteOffset": 936,
      "componentType": 5125,
      "count": 12,
      "max": [
        5
      ],
      "min": [
        0
      ],
      "type": "SCALAR"
    },
    {
      "bufferView": 2,
      "byteOffset": 3552,
      "componentType": 5126,
      "count": 6,
      "max": [
        1.0825318098068237,
        1.25,
        0.80000001192092896
      ],
      "min": [
        0.21650634706020355,
        0.25,
        0.80000001192092896
      ],
      "type": "VEC3"
    },
    {
      "bufferView": 2,
      "byteOffset": 3624,
      "componentType": 5126,
      "count": 6,
      "max": [
        -2.2941836874679211e-08,
        0,
        1
      ],
      "min": [
        -2.2941836874679211e-08,
        0,
        1
      ],
      "type": "VEC3"
    },
    {
      "bufferView": 1,
      "byteOffset": 1184,
      "componentType": 5126,
      "count": 6,
      "max": [
        0.89241641759872437,
        0.95583665370941162
      ],
      "min": [
        0.72060573101043701,
        0.74966377019882202
      ],
      "type": "VEC2"
    },
    {
      "bufferView": 0,
      "byteOffset": 984,
      "componentType": 5125,
      "count": 12,
      "max": [
        5
      ],
      "min": [
        0
      ],
      "type": "SCALAR"
    },
    {
      "bufferView": 2,
      "byteOffset": 3696,
      "componentType": 5126,
      "count": 6,
      "max": [
        0.21650634706020355,
        1.25,
        0.60000002384185791
      ],
      "min": [
        -0.64951902627944946,
        0.25,
        0.60000002384185791
      ],
      "type": "VEC3"
    },
    {
      "bufferView": 2,
      "byteOffset": 3768,
      "componentType": 5126,
      "count": 6,
      "max": [
        0,
        0,
        1
      ],
      "min": [
        0,
        0,
        1
      ],
      "type": "VEC3"
    },
    {
      "bufferView": 1,
      "byteOffset": 1232,
      "componentType": 5126,
      "count": 6,
      "max": [
        0.7015155553817749,
        0.95583665370941162
      ],
      "min": [
        0.52970480918884277,
        0.74966377019882202
      ],
      "type": "VEC2"
    },
    {
      "bufferView": 0,
      "byteOffset": 1032,
      "componentType": 5125,
      "count": 12,
      "max": [
        5
      ],
      "min": [
        0
      ],
      "type": "SCALAR"
    },
    {
      "bufferView": 2,
      "byteOffset": 3840,
      "componentType": 5126,
      "count": 6,
      "max": [
        -0.21650634706020355,
        0.5,
        0.40000000596046448
      ],
      "min": [
        -1.0825318098068237,
        -0.5,
        0.40000000596046448
      ],
      "type": "VEC3"
    },
    {
      "bufferView": 2,
      "byteOffset": 3912,
      "componentType": 5126,
      "count": 6,
      "max": [
        -2.2941836874679211e-08,
        0,
        1
      ],
      "min": [
        -2.2941836874679211e-08,
        0,
        1
      ],
      "type": "VEC3"
    },
    {
      "bufferView": 1,
      "byteOffset": 1280,
      "componentType": 5126,
      "count": 6,
      "max": [
        0.60606509447097778,
        0.78402584791183472
      ],
      "min": [
        0.43425434827804565,
        0.57785290479660034
      ],
      "type": "VEC2"
    },
    {
      "bufferView": 0,
      "byteOffset": 1080,
      "componentType": 5125,
      "count": 12,
      "max": [
        5
      ],
      "min": [
        0
      ],
      "type": "SCALAR"
    },
    {
      "bufferView": 2,
      "byteOffset": 3984,
      "componentType": 5126,
      "count": 6,
      "max": [
        0.21650634706020355,
        -0.25,
        0.20000000298023224
      ],
      "min": [
        -0.64951902627944946,
        -1.25,
        0.20000000298023224
      ],
      "type": "VEC3"
    },
    {
      "bufferView": 2,
      "byteOffset": 4056,
      "componentType": 5126,
      "count": 6,
      "max": [
        1.1470918437339606e-08,
        0,
        1
      ],
      "min": [
        1.1470918437339606e-08,
        0,
        1
      ],
      "type": "VEC3"
    },
    {
      "bufferView": 1,
      "byteOffset": 1328,
      "componentType": 5126,
      "count": 6,
      "max": [
        0.7015155553817749,
        0.61221492290496826
      ],
      "min": [
        0.52970486879348755,
        0.40604209899902344
      ],
      "type": "VEC2"
    },
    {
      "bufferView": 0,
      "byteOffset": 1128,
      "componentType": 5125,
      "count": 12,
      "max": [
        5
      ],
      "min": [
        0
      ],
      "type": "SCALAR"
    }
  ],
  "asset": {
    "extras": {
      "author": "invisiprim (https://sketchfab.com/invisiprim)",
      "license": "CC-BY-4.0 (http://creativecommons.org/licenses/by/4.0/)",
      "source": "https://sketchfab.com/3d-models/honeycomb-display-2-bd26066596a5421da1ba64546527bb58",
      "title": "Honeycomb Display 2"
    },
    "generator": "Sketchfab-9.94.0",
    "version": "2.0"
  },
  "bufferViews": [
    {
      "buffer": 0,
      "byteLength": 1176,
      "byteOffset": 0,
      "name": "floatBufferViews",
      "target": 34963
    },
    {
      "buffer": 0,
      "byteLength": 1376,
      "byteOffset": 1176,
      "byteStride": 8,
      "name": "floatBufferViews",
      "target": 34962
    },
    {
      "buffer": 0,
      "byteLength": 4128,
      "byteOffset": 2552,
      "byteStride": 12,
      "name": "floatBufferViews",
      "target": 34962
    }
  ],
  "buffers": [
    {
      "byteLength": 6680,
      "uri": "scene.bin"
    }
  ],
  "images": [
    {
      "uri": "textures/Material.010_baseColor.png"
    }
  ],
  "materials": [
    {
      "doubleSided": true,
      "emissiveFactor": [
        0,
        0,
        0
      ],
      "name": "Material.010",
      "pbrMetallicRoughness": {
        "baseColorFactor": [
          1,
          1,
          1,
          1
        ],
        "baseColorTexture": {
          "index": 0,
          "texCoord": 0
        },
        "metallicFactor": 0,
        "roughnessFactor": 0.95770514946237739
      }
    },
    {
      "doubleSided": true,
      "emissiveFactor": [
        0,
        0,
        0
      ],
      "name": "Material.009",
      "pbrMetallicRoughness": {
        "baseColorFactor": [
          1,
          1,
          1,
          1
        ],
        "baseColorTexture": {
          "index": 0,
          "texCoord": 0
        },
        "metallicFactor": 0,
        "roughnessFactor": 0.95770514946237739
      }
    },
    {
      "doubleSided": true,
      "emissiveFactor": [
        0,
        0,
        0
      ],
      "name": "Material.008",
      "pbrMetallicRoughness": {
        "baseColorFactor": [
          1,
          1,
          1,
          1
        ],
        "baseColorTexture": {
          "index": 0,
          "texCoord": 0
        },
        "metallicFactor": 0,
        "roughnessFactor": 0.95770514946237739
      }
    },
    {
      "doubleSided": true,
      "emissiveFactor": [
        0,
        0,
        0
      ],
      "name": "Material.007",
      "pbrMetallicRoughness": {
        "baseColorFactor": [
          1,
          1,
          1,
          1
        ],
        "baseColorTexture": {
          "index": 0,
          "texCoord": 0
        },
        "metallicFactor": 0,
        "roughnessFactor": 0.95770514946237739
      }
    },
    {
      "doubleSided": true,
      "emissiveFactor": [
        0,
        0,
        0
      ],
      "name": "Material.006",
      "pbrMetallicRoughness": {
        "baseColorFactor": [
          1,
          1,
          1,
          1
        ],
        "baseColorTexture": {
          "index": 0,
          "texCoord": 0
        },
        "metallicFactor": 0,
        "roughnessFactor": 0.95770514946237739
      }
    },
    {
      "doubleSided": true,
      "emissiveFactor": [
        0,
        0,
        0
      ],
      "name": "Material.005",
      "pbrMetallicRoughness": {
        "baseColorFactor": [
          1,
          1,
          1,
          1
        ],
        "baseColorTexture": {
          "index": 0,
          "texCoord": 0
        },
        "metallicFactor": 0,
        "roughnessFactor": 0.95770514946237739
      }
    },
    {
      "doubleSided": true,
      "emissiveFactor": [
        0,
        0,
        0
      ],
      "name": "Material.004",
      "pbrMetallicRoughness": {
        "baseColorFactor": [
          1,
          1,
          1,
          1
        ],
        "baseColorTexture": {
          "index": 0,
          "texCoord": 0
        },
        "metallicFactor": 0,
        "roughnessFactor": 0.95770514946237739
      }
    },
    {
      "doubleSided": true,
      "emissiveFactor": [
        0,
        0,
        0
      ],
      "name": "Material.003",
      "pbrMetallicRoughness": {
        "baseColorFactor": [
          1,
          1,
          1,
          1
        ],
        "baseColorTexture": {
          "index": 0,
          "texCoord": 0
        },
        "metallicFactor": 0,
        "roughnessFactor": 0.95770514946237739
      }
    }
  ],
  "meshes": [
    {
      "name": "honeycomb_Material.010_0",
      "primitives": [
        {
          "attributes": {
            "NORMAL": 1,
            "POSITION": 0,
            "TEXCOORD_0": 2
          },
          "indices": 3,
          "material": 0,
          "mode": 4
        }
      ]
    },
    {
      "name": "honeycomb_Material.009_0",
      "primitives": [
        {
          "attributes": {
            "NORMAL": 5,
            "POSITION": 4,
            "TEXCOORD_0": 6
          },
          "indices": 7,
          "material": 1,
          "mode": 4
        }
      ]
    },
    {
      "name": "honeycomb_Material.008_0",
      "primitives": [
        {
          "attributes": {
            "NORMAL": 9,
            "POSITION": 8,
            "TEXCOORD_0": 10
          },
          "indices": 11,
          "material": 2,
          "mode": 4
        }
      ]
    },
    {
      "name": "honeycomb_Material.007_0",
      "primitives": [
        {
          "attributes": {
            "NORMAL": 13,
            "POSITION": 12,
            "TEXCOORD_0": 14
          },
          "indices": 15,
          "material": 3,
          "mode": 4
        }
      ]
    },
    {
      "name": "honeycomb_Material.006_0",
      "primitives": [
        {
          "attributes": {
            "NORMAL": 17,
            "POSITION": 16,
            "TEXCOORD_0": 18
          },
          "indices": 19,
          "material": 4,
          "mode": 4
        }
      ]
    },
    {
      "name": "honeycomb_Material.005_0",
      "primitives": [
        {
          "attributes": {
            "NORMAL": 21,
            "POSITION": 20,
            "TEXCOORD_0": 22
          },
          "indices": 23,
          "material": 5,
          "mode": 4
        }
      ]
    },
    {
      "name": "honeycomb_Material.004_0",
      "primitives": [
        {
          "attributes": {
            "NORMAL": 25,
            "POSITION": 24,
            "TEXCOORD_0": 26
          },
          "indices": 27,
          "material": 6,
          "mode": 4
        }
      ]
    },
    {
      "name": "honeycomb_Material.003_0",
      "primitives": [
        {
          "attributes": {
            "NORMAL": 29,
            "POSITION": 28,
            "TEXCOORD_0": 30
          },
          "indices": 31,
          "material": 7,
          "mode": 4
        }
      ]
    }
  ],
  "nodes": [
    {
      "children": [
        1
      ],
      "name": "RootNode (gltf orientation matrix)",
      "rotation": [
        -0.70710678118654746,
        -0,
        -0,
        0.70710678118654757
      ]
    },
    {
      "children": [
        2
      ],
      "name": "RootNode (model correction matrix)"
    },
    {
      "children": [
        3
      ],
      "matrix": [
        1,
        0,
        0,
        0,
        0,
        0,
        1,
        0,
        0,
        -1,
        0,
        0,
        0,
        0,
        0,
        1
      ],
      "name": "honeycomb display 2.fbx"
    },
    {
      "children": [
        4
      ],
      "name": "RootNode"
    },
    {
      "children": [
        5,
        6,
        7,
        8,
        9,
        10,
        11,
        12
      ],
      "matrix": [
        100,
        0,
        0,
        0,
        0,
        -1.6292067939183141e-05,
        -99.999999999998678,
        0,
        0,
        99.999999999998678,
        -1.6292067939183141e-05,
        0,
        0,
        0,
        0,
        1
      ],
      "name": "honeycomb"
    },
    {
      "mesh": 0,
      "name": "honeycomb_Material.010_0"
    },
    {
      "mesh": 1,
      "name": "honeycomb_Material.009_0"
    },
    {
      "mesh": 2,
      "name": "honeycomb_Material.008_0"
    },
    {
      "mesh": 3,
      "name": "honeycomb_Material.007_0"
    },
    {
      "mesh": 4,
      "name": "honeycomb_Material.006_0"
    },
    {
      "mesh": 5,
      "name": "honeycomb_Material.005_0"
    },
    {
      "mesh": 6,
      "name": "honeycomb_Material.004_0"
    },
    {
      "mesh": 7,
      "name": "honeycomb_Material.003_0"
    }
  ],
  "samplers": [
    {
      "magFilter": 9729,
      "minFilter": 9987,
      "wrapS": 10497,
      "wrapT": 10497
    }
  ],
  "scene": 0,
  "scenes": [
    {
      "name": "OSG_Scene",
      "nodes": [
        0
      ]
    }
  ],
  "textures": [
    {
      "sampler": 0,
      "source": 0
    }
  ]
}

